<svg width="70" height="70" viewBox="0 0 70 70" fill="none" xmlns="http://www.w3.org/2000/svg">
<path fill-rule="evenodd" clip-rule="evenodd" d="M36.0322 3.69824L59.2607 11.6143C59.8281 11.8125 60.293 12.4619 60.2793 13.0635V46.04C60.2793 46.6484 59.8896 47.4414 59.418 47.8106L35.8545 66.1719C35.6221 66.3564 35.3076 66.4521 34.9932 66.4521C34.6787 66.4521 34.3711 66.3564 34.1318 66.1719L10.5684 47.8106C10.0967 47.4346 9.70703 46.6416 9.70703 46.04V13.0635C9.70703 12.4619 10.1719 11.8057 10.7393 11.6143L33.9678 3.69824C34.248 3.60254 34.624 3.55469 35 3.55469C35.376 3.55469 35.7519 3.60254 36.0322 3.69824ZM35 60.6006L55.3711 44.7275V15.4971L35 8.55176L14.6289 15.4971V44.7275L35 60.6006Z" fill="#ED4C5C"/>
<path fill-rule="evenodd" clip-rule="evenodd" d="M27.542 36.1484L22.2441 41.4463C22.1424 41.5491 22.0853 41.6879 22.0853 41.8325C22.0853 41.9772 22.1424 42.116 22.2441 42.2187L24.5684 44.543C24.7803 44.7549 25.1289 44.7549 25.3408 44.543L30.6387 39.2451C34.4463 41.6445 39.5322 41.1865 42.8477 37.8711C46.6963 34.0225 46.6963 27.7881 42.8477 23.9395C38.999 20.0908 32.7646 20.0908 28.916 23.9395C25.6006 27.2549 25.1426 32.3477 27.542 36.1484ZM39.751 27.0361C37.6182 24.8965 34.1523 24.8965 32.0127 27.0361C29.873 29.1758 29.8799 32.6348 32.0127 34.7744C34.1455 36.9141 37.6113 36.9141 39.751 34.7744C41.8906 32.6416 41.8906 29.1758 39.751 27.0361Z" fill="#ED4C5C"/>
</svg>
